<?xml version="1.0" encoding="utf-8"?>
<!-- Generator: Adobe Illustrator 17.0.0, SVG Export Plug-In . SVG Version: 6.00 Build 0)  -->
<!DOCTYPE svg PUBLIC "-//W3C//DTD SVG 1.1//EN" "http://www.w3.org/Graphics/SVG/1.1/DTD/svg11.dtd">
<svg version="1.1" id="Capa_1" xmlns="http://www.w3.org/2000/svg" xmlns:xlink="http://www.w3.org/1999/xlink" x="0px" y="0px"
	 width="64px" height="64px" viewBox="0 0 64 64" enable-background="new 0 0 64 64" xml:space="preserve">
<g>
	<path d="M29.865,23.713h0.359c0.574-0.123,1.169-0.191,1.78-0.191s1.205,0.068,1.78,0.191h0.359v-9.7l7.422-7.423L38.54,3.566
		l-4.398,4.398V3.229h-4.277v4.734l-4.398-4.398L22.443,6.59l7.422,7.423V23.713z"/>
	<path d="M40.295,29.865v0.359c0.123,0.575,0.191,1.169,0.191,1.78s-0.068,1.206-0.191,1.78v0.359h9.7l7.423,7.422l3.024-3.024
		l-4.398-4.398h4.734v-4.277h-4.734l4.398-4.398l-3.024-3.024l-7.423,7.422H40.295z"/>
	<path d="M29.865,56.044v4.734h4.277v-4.734l4.398,4.398l3.024-3.024l-7.422-7.423v-9.7h-0.359c-0.575,0.123-1.169,0.191-1.78,0.191
		s-1.206-0.068-1.78-0.191h-0.359v9.7l-7.422,7.423l3.024,3.024L29.865,56.044z"/>
	<path d="M3.566,38.54l3.024,3.024l7.423-7.422h9.7v-0.359c-0.123-0.575-0.191-1.169-0.191-1.78s0.068-1.206,0.191-1.78v-0.359h-9.7
		L6.59,22.443l-3.024,3.024l4.398,4.398H3.229v4.277h4.734L3.566,38.54z"/>
	<path d="M7.223,20.907l10.497-0.047l6.89,6.828l0.274-0.277c0.642-0.992,1.483-1.842,2.469-2.492l0.267-0.27l-6.89-6.828
		L20.682,7.325l-4.277,0.019l0.028,6.219l-3.363-3.332l-3.011,3.038l3.363,3.332L7.203,16.63L7.223,20.907z"/>
	<path d="M36.655,24.918c0.987,0.65,1.827,1.5,2.469,2.492l0.274,0.277l6.89-6.828l10.497,0.047l0.019-4.277l-6.219-0.028
		l3.363-3.332l-3.011-3.038l-3.363,3.332l0.028-6.219l-4.277-0.019l-0.048,10.497l-6.89,6.828L36.655,24.918z"/>
	<path d="M56.785,43.101l-10.497,0.047l-6.89-6.828l-0.274,0.277c-0.642,0.992-1.483,1.842-2.469,2.492l-0.267,0.27l6.89,6.828
		l0.048,10.497l4.277-0.019l-0.028-6.219l3.363,3.332l3.011-3.038l-3.363-3.332l6.219-0.028L56.785,43.101z"/>
	<path d="M20.682,56.683l0.048-10.497l6.89-6.828l-0.267-0.27c-0.987-0.65-1.827-1.5-2.469-2.492l-0.274-0.277l-6.89,6.828
		L7.223,43.101l-0.019,4.277l6.219,0.028l-3.363,3.332l3.011,3.038l3.363-3.332l-0.028,6.219L20.682,56.683z"/>
	<circle cx="32.004" cy="32.004" r="5.483"/>
</g>
</svg>
