<?xml version="1.0" encoding="utf-8"?>
<!-- Generator: Adobe Illustrator 17.0.0, SVG Export Plug-In . SVG Version: 6.00 Build 0)  -->
<!DOCTYPE svg PUBLIC "-//W3C//DTD SVG 1.1//EN" "http://www.w3.org/Graphics/SVG/1.1/DTD/svg11.dtd">
<svg version="1.1" id="Capa_1" xmlns="http://www.w3.org/2000/svg" xmlns:xlink="http://www.w3.org/1999/xlink" x="0px" y="0px"
	 width="64px" height="64px" viewBox="0 0 64 64" enable-background="new 0 0 64 64" xml:space="preserve">
<g>
	<path d="M11.128,36.58c0.001,0,0.001,0,0.002,0c5.142,0,10.267-0.873,15.223-1.718c4.875-0.831,9.915-1.689,14.888-1.689
		c0.126,0,0.243,0.01,0.368,0.011c-0.004-0.026-0.008-0.05-0.01-0.063l-0.002-0.012l0.989-0.15l-0.194,0.032l0.194-0.029
		l-0.493,0.08h0l-0.2,0.032l0.2-0.032h0l0.493-0.078c0.003,0.021,0.021,0.115,0.055,0.25c1.192,0.04,2.354,0.113,3.485,0.257
		c1.435,0.185,2.5-0.793,2.588-2.182c0.074-1.155-0.628-2.424-2.114-2.615c-1.66-0.212-3.344-0.315-5.149-0.315
		c-5.15,0-10.28,0.874-15.242,1.719c-4.873,0.83-9.912,1.688-14.878,1.688c-2.51,0-4.815-0.212-7.046-0.647
		c-0.171-0.033-0.333-0.049-0.486-0.049c-1.143,0-2.022,0.841-2.138,2.044c-0.112,1.163,0.545,2.492,2.02,2.78
		C6.048,36.355,8.484,36.58,11.128,36.58z"/>
	<path d="M34.277,20.414c-4.978,1.136-10.124,2.31-15.086,2.31c-1.695,0-3.261-0.131-4.788-0.4c-0.157-0.028-0.305-0.04-0.447-0.04
		c-1.17,0-2.062,0.857-2.169,2.085c-0.102,1.162,0.568,2.476,2.047,2.736c1.816,0.321,3.67,0.478,5.667,0.478
		c5.402,0,10.771-1.178,15.962-2.316l1.736-0.379c4.208-0.916,8.559-1.862,12.801-1.862c3.21,0,6,0.543,8.528,1.661
		c1.36,0.6,2.843-0.228,3.152-1.693c0.251-1.19-0.314-2.314-1.408-2.798c-3.23-1.427-6.706-2.121-10.627-2.121
		C44.54,18.073,39.323,19.264,34.277,20.414z"/>
	<path d="M16.531,48.578c3.78,2.769,8.117,3.827,12.594,4.366c0.174,0.021,0.349,0.043,0.523,0.063
		c0.174,0.019,0.349,0.039,0.523,0.057c0.614,0.063,1.23,0.119,1.847,0.169c2.159,0.176,4.33,0.293,6.469,0.475
		c1.243,0.106,1.238-1.831,0.001-1.936c-2.486-0.212-5.015-0.326-7.513-0.562c-0.172-0.016-0.345-0.032-0.517-0.049
		c-0.173-0.018-0.346-0.038-0.519-0.057c0.7-1.75,1.073-3.399,0.544-4.878c-0.535-1.492-1.955-2.75-4.342-3.845
		c-1.834-0.841-4.557-1.267-8.093-1.267c-4.882,0-10.291,0.811-13.879,1.469c2.243,0.637,4.722,2.395,5.629,6.892
		c1.637,8.115,6.561,10.428,6.61,10.45c1.431,0.689,2.79,1.036,4.053,1.036c3.963,0,6.447-3.426,7.833-6.299l0.122-0.251
		c-4.954-1.012-10.348-2.102-13.461-6.037c-0.729-0.922,0.596-1.984,1.401-1.287C16.038,47.503,15.984,48.178,16.531,48.578z"/>
	<path d="M48.86,40.512c2.993,0.87,4.904,3.68,6.652,6.302l0.086-0.096c1.264-1.397,1.961-2.757,2.074-4.041
		c0.125-1.412-0.482-2.732-1.803-3.927c-0.026-0.024-1.719-1.585-5.137-1.585c-0.775,0-1.591,0.08-2.424,0.238
		c-0.522,0.099-1.028,0.149-1.502,0.149c-1.679,0-2.828-0.606-3.61-1.371c0.951,4.358,2.667,10.055,4.942,12.193
		c1.133,1.065,2.132,1.583,3.055,1.583c0.99,0,1.876-0.62,2.749-1.466c0.083,0.152,0.171,0.301,0.252,0.454
		c0.081,0.152,0.157,0.308,0.236,0.461c0.701,1.358,1.352,2.753,2.041,4.106c0.357,0.701,1.495,0.242,1.136-0.463
		c-0.617-1.212-1.204-2.458-1.823-3.683c-0.148-0.292-0.298-0.583-0.45-0.872c-0.082-0.156-0.164-0.311-0.248-0.465
		c-0.084-0.155-0.169-0.309-0.255-0.462c-1.366-2.433-3.005-4.658-5.475-6.18c-0.365-0.225-0.749-0.032-0.917,0.253
		C47.838,41.336,48.145,40.304,48.86,40.512z"/>
	<path d="M44.782,9.141l0.032,0.067c0.655,1.358,1.821,2.979,3.655,2.979c0.588,0,1.225-0.163,1.894-0.485
		c0.107-0.05,2.362-1.127,3.145-5.005c0.367-1.816,1.25-2.771,2.154-3.266c-1.71-0.286-3.948-0.576-5.996-0.576
		c-1.716,0-3.03,0.203-3.906,0.604c-1.118,0.514-1.779,1.089-2.02,1.762c-0.241,0.673-0.052,1.456,0.29,2.297
		c-0.172,0.021-0.342,0.046-0.515,0.064c-0.172,0.018-0.345,0.03-0.518,0.045c-1.154,0.101-2.317,0.161-3.463,0.259
		c-0.613,0.052-0.616,1.012,0.001,0.96c1.067-0.091,2.149-0.152,3.227-0.24c0.21-0.017,0.419-0.036,0.628-0.056
		c0.175-0.017,0.351-0.033,0.525-0.052s0.347-0.047,0.521-0.07c2.126-0.277,4.182-0.806,5.982-2.124
		c0.271-0.198,0.244-0.533,0.087-0.739c0.399-0.345,1.056,0.181,0.694,0.638C49.709,8.084,47.165,8.653,44.782,9.141z"/>
</g>
</svg>
