<?xml version="1.0" encoding="utf-8"?>
<!-- Generator: Adobe Illustrator 17.0.0, SVG Export Plug-In . SVG Version: 6.00 Build 0)  -->
<!DOCTYPE svg PUBLIC "-//W3C//DTD SVG 1.1//EN" "http://www.w3.org/Graphics/SVG/1.1/DTD/svg11.dtd">
<svg version="1.1" id="Capa_1" xmlns="http://www.w3.org/2000/svg" xmlns:xlink="http://www.w3.org/1999/xlink" x="0px" y="0px"
	 width="64px" height="64px" viewBox="0 0 64 64" enable-background="new 0 0 64 64" xml:space="preserve">
<g>
	<path d="M37.449,27.812h-0.063c-1.337,0-2.421,3.553-2.421,3.553c0,0.373,0.05,0.726,0.123,1.064
		c0.751-0.169,1.529-0.266,2.33-0.266s1.579,0.097,2.33,0.266c0.073-0.338,0.123-0.691,0.123-1.064
		C39.87,31.364,38.786,27.812,37.449,27.812z"/>
	<path d="M48.831,45.23c0,0,3.553-1.084,3.553-2.421v-0.063c0-1.337-3.553-2.421-3.553-2.421c-0.373,0-0.726,0.05-1.064,0.123
		c0.169,0.751,0.266,1.529,0.266,2.33s-0.097,1.579-0.266,2.33C48.105,45.18,48.458,45.23,48.831,45.23z"/>
	<path d="M28.724,36.705c0.9-1.284,2.075-2.357,3.441-3.139c-0.174-0.3-0.376-0.595-0.628-0.872c0,0-3.195-1.894-4.183-0.993
		l-0.046,0.042c-0.988,0.901,0.606,4.256,0.606,4.256C28.166,36.276,28.442,36.504,28.724,36.705z"/>
	<path d="M47.528,31.743l-0.047-0.042c-0.988-0.901-4.183,0.993-4.183,0.993c-0.253,0.277-0.454,0.572-0.628,0.872
		c1.366,0.782,2.541,1.855,3.441,3.139c0.283-0.201,0.558-0.429,0.811-0.705C46.922,35.999,48.516,32.644,47.528,31.743z"/>
	<path d="M26.005,40.325c0,0-3.022,0.924-3.487,2.118l4.516,2.528c-0.15-0.708-0.231-1.442-0.231-2.194
		c0-0.801,0.097-1.579,0.266-2.33C26.731,40.375,26.378,40.325,26.005,40.325z"/>
	<path d="M29.618,46.418l7.587,4.247l1.031,0.577l0.341-0.177l3.749-1.95l1.797-0.935c0.02-0.025,0.037-0.051,0.057-0.076
		c0.881-1.117,1.487-2.457,1.728-3.922c0.075-0.458,0.124-0.925,0.124-1.404s-0.049-0.946-0.124-1.404
		c-0.241-1.465-0.847-2.804-1.728-3.922c-0.584-0.74-1.284-1.382-2.077-1.897c-0.975-0.634-2.087-1.071-3.281-1.267
		c-0.458-0.075-0.925-0.124-1.404-0.124s-0.946,0.049-1.404,0.124c-1.194,0.196-2.306,0.633-3.281,1.267
		c-0.793,0.515-1.493,1.157-2.077,1.897c-0.881,1.117-1.487,2.457-1.728,3.922c-0.075,0.458-0.124,0.925-0.124,1.404
		s0.049,0.946,0.124,1.404C29.057,44.969,29.291,45.718,29.618,46.418z"/>
	<path d="M54.871,44.516c-0.212-0.213-0.491-0.319-0.77-0.319s-0.557,0.106-0.77,0.319l-6.678,3.474l-1.049,0.546l-0.852,0.443
		l-2.633,1.37l-2.84,1.477l0.476,0.267l1.209,0.677l6.368,3.564l0.539,0.302h13.819L54.871,44.516z"/>
	<path d="M36.462,57.206h1.912h8.471l-0.126-0.071l-0.894-0.5l-6.052-3.388l-0.157-0.088l-1.397-0.782l-0.043-0.024l-0.479-0.268
		l-0.522-0.292l-0.856-0.479l-0.22-0.123l-3.552-1.988l-1.84-1.03l-0.111-0.062L28.86,47.14l-1.429-0.8l-12.14-6.795
		c-0.372-0.372-0.859-0.558-1.346-0.558c-0.487,0-0.975,0.186-1.346,0.558L2,57.206h27.711H36.462z"/>
</g>
</svg>
