<?xml version="1.0" encoding="utf-8"?>
<!-- Generator: Adobe Illustrator 17.0.0, SVG Export Plug-In . SVG Version: 6.00 Build 0)  -->
<!DOCTYPE svg PUBLIC "-//W3C//DTD SVG 1.1//EN" "http://www.w3.org/Graphics/SVG/1.1/DTD/svg11.dtd">
<svg version="1.1" id="Capa_1" xmlns="http://www.w3.org/2000/svg" xmlns:xlink="http://www.w3.org/1999/xlink" x="0px" y="0px"
	 width="64px" height="64px" viewBox="0 0 64 64" enable-background="new 0 0 64 64" xml:space="preserve">
<g>
	<path d="M35.516,13.621c0-2.932-1.295-2.932-1.848-2.932c-0.553,0-1.848,0-1.848,2.932v13.005h3.696V13.621z"/>
	<path d="M37.396,51.197c1.542-1.673,2.262-3.74,2.061-5.785c-0.136-1.385-2.941-1.395-2.804,0c0.169,1.711-0.389,3.293-1.678,4.691
		C33.924,51.244,36.357,52.325,37.396,51.197z"/>
	<path d="M23,30.313c-1.104,0-2,0.896-2,2s0.896,2,2,2h4.341v2.366c-3.378,2.137-5.627,5.895-5.627,10.187
		c0,6.659,5.398,12.057,12.057,12.057s12.057-5.398,12.057-12.057c0-4.429-2.395-8.29-5.954-10.386V11.342
		c0-3.461-2.806-6.267-6.267-6.267s-6.267,2.806-6.267,6.267v0.971H23c-1.104,0-2,0.896-2,2s0.896,2,2,2h4.341v2H23
		c-1.104,0-2,0.896-2,2s0.896,2,2,2h4.341v2H23c-1.104,0-2,0.896-2,2s0.896,2,2,2h4.341v2H23z M30.821,26.626V13.621
		c0-2.171,0.676-3.932,2.848-3.932s2.848,1.76,2.848,3.932v13.005V40.23c2.984,0.764,4.562,3.347,4.776,5.918
		c0.026,0.197,0.043,0.396,0.043,0.598c0,4.178-3.387,7.565-7.565,7.565s-7.564-3.387-7.564-7.565c0-0.203,0.018-0.403,0.045-0.601
		c0.228-2.824,2.01-5.011,4.569-5.79V26.626z"/>
</g>
</svg>
