<?xml version="1.0" encoding="utf-8"?>
<!-- Generator: Adobe Illustrator 17.0.0, SVG Export Plug-In . SVG Version: 6.00 Build 0)  -->
<!DOCTYPE svg PUBLIC "-//W3C//DTD SVG 1.1//EN" "http://www.w3.org/Graphics/SVG/1.1/DTD/svg11.dtd">
<svg version="1.1" id="Capa_1" xmlns="http://www.w3.org/2000/svg" xmlns:xlink="http://www.w3.org/1999/xlink" x="0px" y="0px"
	 width="64px" height="64px" viewBox="0 0 64 64" enable-background="new 0 0 64 64" xml:space="preserve">
<g>
	<path d="M22.441,55.14c1.661,0.127,3.052-1.484,3.052-3.052c0-1.759-1.394-2.925-3.052-3.052c-1.011-0.077-1.61-0.366-2.17-0.951
		c0.102,0.089-0.08-0.192-0.196-0.368c0.017-0.03-0.199-0.572-0.204-0.589c-0.107-0.397-0.102-1.273-0.03-2.049
		c0.153-1.659-1.504-3.052-3.052-3.052c-1.779,0-2.899,1.396-3.052,3.052c-0.234,2.531,0.348,4.979,1.933,6.984
		C17.318,54.148,19.889,54.945,22.441,55.14z"/>
	<path d="M7.67,49.108l0.067,0.711l0.08-0.001C9.09,56.786,15.18,62,22.44,62c8.208,0,14.886-6.678,14.886-14.886
		c0-0.985-0.097-1.972-0.289-2.933c-2.103-15.017-12.951-23.149-13.412-23.488l-1.196-0.88l-1.188,0.891
		C7.463,31.037,7.448,45.307,7.544,47.635c-0.016,0.153-0.021,0.307-0.01,0.46C7.511,48.44,7.561,48.786,7.67,49.108z
		 M22.402,24.879c2.675,2.407,9.209,9.266,10.681,19.912l0.021,0.126c0.147,0.718,0.221,1.458,0.221,2.197
		C33.326,53.117,28.443,58,22.44,58c-5.785,0-10.553-4.53-10.854-10.312l-0.053-0.762C11.543,44.067,12.288,33.238,22.402,24.879z"
		/>
	<path d="M45.638,2.083l-0.897-0.66L43.85,2.092c-8.478,6.358-7.904,15.333-7.875,15.711l0.127,1.422l0.087-0.002
		c0.875,3.948,4.39,6.864,8.561,6.864c4.841,0,8.779-3.938,8.779-8.779c0-0.593-0.06-1.188-0.162-1.673
		C52.17,6.976,45.904,2.279,45.638,2.083z M44.75,23.087c-3.071,0-5.602-2.405-5.762-5.475l-0.03-0.464
		c0.012-1.601,0.447-7.357,5.76-11.909c1.589,1.492,4.905,5.216,5.693,10.901c0.078,0.383,0.118,0.775,0.118,1.167
		C50.529,20.494,47.936,23.087,44.75,23.087z"/>
	<path d="M44.749,18.393c-0.571-0.044-0.91-0.207-1.226-0.537c0.058,0.05-0.045-0.109-0.111-0.208
		c0.01-0.017-0.113-0.323-0.115-0.333c-0.061-0.224-0.057-0.719-0.017-1.157c0.087-0.937-0.85-1.724-1.724-1.724
		c-1.005,0-1.638,0.789-1.724,1.724c-0.132,1.43,0.196,2.813,1.092,3.945c0.931,1.177,2.383,1.627,3.825,1.738
		c0.938,0.072,1.724-0.839,1.724-1.724C46.473,19.123,45.686,18.465,44.749,18.393z"/>
</g>
</svg>
