<?xml version="1.0" encoding="utf-8"?>
<!-- Generator: Adobe Illustrator 17.0.0, SVG Export Plug-In . SVG Version: 6.00 Build 0)  -->
<!DOCTYPE svg PUBLIC "-//W3C//DTD SVG 1.1//EN" "http://www.w3.org/Graphics/SVG/1.1/DTD/svg11.dtd">
<svg version="1.1" id="Capa_1" xmlns="http://www.w3.org/2000/svg" xmlns:xlink="http://www.w3.org/1999/xlink" x="0px" y="0px"
	 width="64px" height="64px" viewBox="0 0 64 64" enable-background="new 0 0 64 64" xml:space="preserve">
<g>
	<path d="M28.71,50.984c0,6.054,4.925,10.979,10.979,10.979s10.979-4.925,10.979-10.979v-1.59c0-1.933-1.567-3.5-3.5-3.5
		c-0.771,0-1.477,0.257-2.055,0.679c-0.872,0.637-1.445,1.659-1.445,2.821v1.59c0,2.194-1.785,3.979-3.979,3.979
		s-3.979-1.785-3.979-3.979V33.663v-2.071h23.057v-3.5c0-14.502-11.798-26.3-26.3-26.3s-26.3,11.798-26.3,26.3v3.5H28.71V50.984z
		 M51.449,24.592H13.484c1.652-8.977,9.535-15.8,18.982-15.8C41.914,8.792,49.797,15.615,51.449,24.592z"/>
</g>
</svg>
