<?xml version="1.0" encoding="utf-8"?>
<!-- Generator: Adobe Illustrator 17.0.0, SVG Export Plug-In . SVG Version: 6.00 Build 0)  -->
<!DOCTYPE svg PUBLIC "-//W3C//DTD SVG 1.1//EN" "http://www.w3.org/Graphics/SVG/1.1/DTD/svg11.dtd">
<svg version="1.1" id="Capa_1" xmlns="http://www.w3.org/2000/svg" xmlns:xlink="http://www.w3.org/1999/xlink" x="0px" y="0px"
	 width="64px" height="64px" viewBox="0 0 64 64" enable-background="new 0 0 64 64" xml:space="preserve">
<g>
	<path d="M50.362,1.667c0.054,0.577,0.089,1.159,0.089,1.749c0,1.373-0.16,2.709-0.443,3.998c1.008,0.41,2.183,0.65,3.442,0.65
		c0,0,6.734-2.054,6.734-4.589V3.356c0-0.597-0.382-1.166-0.954-1.69H50.362z"/>
	<path d="M35.816,21.606c-1.29,0.283-2.625,0.443-3.998,0.443c-1.373,0-2.709-0.16-3.998-0.443c-0.41,1.008-0.65,2.183-0.65,3.442
		c0,0,2.054,6.734,4.589,6.734h0.119c2.534,0,4.589-6.734,4.589-6.734C36.466,23.789,36.226,22.614,35.816,21.606z"/>
	<path d="M22.504,19.53c-2.325-1.349-4.331-3.182-5.881-5.366c-0.989,0.468-1.965,1.164-2.82,2.1c0,0-3.021,6.359-1.149,8.067
		l0.088,0.08c1.872,1.708,7.928-1.882,7.928-1.882C21.525,21.593,22.128,20.557,22.504,19.53z"/>
	<path d="M50.892,24.411l0.088-0.08c1.872-1.708-1.149-8.067-1.149-8.067c-0.854-0.936-1.831-1.631-2.82-2.1
		c-1.55,2.185-3.556,4.017-5.881,5.366c0.376,1.027,0.979,2.063,1.833,2.999C42.964,22.529,49.02,26.119,50.892,24.411z"/>
	<path d="M13.628,7.414c-0.283-1.29-0.443-2.625-0.443-3.998c0-0.591,0.035-1.173,0.089-1.749H4.405
		C3.833,2.19,3.452,2.759,3.452,3.356v0.119c0,2.534,6.734,4.589,6.734,4.589C11.445,8.064,12.619,7.824,13.628,7.414z"/>
	<path d="M31.817,19.744c0.91,0,1.796-0.093,2.665-0.236c2.262-0.372,4.368-1.2,6.216-2.401c1.503-0.977,2.831-2.193,3.937-3.596
		c1.669-2.116,2.817-4.654,3.274-7.429c0.143-0.869,0.236-1.755,0.236-2.665c0-0.591-0.035-1.174-0.097-1.749h-0.856H16.442h-0.856
		c-0.061,0.575-0.097,1.158-0.097,1.749c0,0.91,0.093,1.796,0.236,2.665C16.182,8.856,17.33,11.394,19,13.51
		c1.107,1.403,2.435,2.619,3.937,3.596c1.848,1.201,3.953,2.029,6.216,2.401C30.022,19.651,30.908,19.744,31.817,19.744z"/>
	<path d="M16.238,29.946c-0.957-0.554-2.18-0.229-2.733,0.729L7.193,41.573c-0.553,0.955-0.227,2.179,0.729,2.732
		c0.316,0.183,0.66,0.27,1,0.27c0.69,0,1.362-0.357,1.733-0.998l6.312-10.898C17.52,31.724,17.193,30.5,16.238,29.946z"/>
	<path d="M51.523,30.675c-0.553-0.956-1.777-1.282-2.733-0.729c-0.956,0.554-1.282,1.777-0.728,2.732l6.312,10.898
		c0.371,0.641,1.042,0.998,1.732,0.998c0.34,0,0.685-0.087,1-0.27c0.956-0.554,1.282-1.777,0.728-2.732L51.523,30.675z"/>
	<path d="M21.332,46.998c0.186,0.054,0.373,0.08,0.557,0.08c0.868,0,1.667-0.569,1.92-1.444l3.29-11.36
		c0.308-1.062-0.304-2.171-1.365-2.478c-1.06-0.307-2.17,0.304-2.477,1.364l-3.29,11.36C19.659,45.582,20.271,46.691,21.332,46.998z
		"/>
	<path d="M41.582,45.77c0.308,0.791,1.063,1.274,1.864,1.274c0.242,0,0.488-0.045,0.727-0.138c1.029-0.401,1.538-1.562,1.136-2.59
		l-4.405-11.292c-0.401-1.03-1.562-1.537-2.59-1.137c-1.029,0.401-1.538,1.562-1.136,2.59L41.582,45.77z"/>
	<path d="M30.276,49.353h-0.905c-0.827,0-1.5,0.752-1.5,1.676v5.317c0,2.479-2.671,2.999-4.913,2.999
		c-1.749,0-4.682-0.39-4.682-2.999v-5.317c0-0.924-0.673-1.676-1.5-1.676h-0.904c-0.827,0-1.5,0.752-1.5,1.676v5.284
		c0,3.345,3.014,5.188,8.487,5.188c5.75,0,8.917-1.865,8.917-5.251v-5.221C31.776,50.104,31.103,49.353,30.276,49.353z"/>
	<path d="M51.266,49.353h-1.069c-0.719,0-1.598,0.484-2.043,1.126l-3.131,4.509c-0.818,1.184-1.476,2.169-2.028,3.126
		c-0.042,0.072-0.082,0.143-0.121,0.211l-0.114-0.218c-0.557-1.038-1.237-2.114-1.888-3.122l-2.864-4.462
		c-0.428-0.667-1.297-1.17-2.023-1.17h-1.103c-0.434,0-0.781,0.183-0.952,0.501c-0.184,0.344-0.13,0.782,0.149,1.203l6.033,9.112
		c0.435,0.657,1.308,1.152,2.031,1.152h1.168c0.715,0,1.598-0.474,2.054-1.102l6.656-9.178c0.297-0.41,0.368-0.843,0.192-1.186
		C52.051,49.536,51.706,49.353,51.266,49.353z"/>
</g>
</svg>
