<?xml version="1.0" encoding="utf-8"?>
<!-- Generator: Adobe Illustrator 17.0.0, SVG Export Plug-In . SVG Version: 6.00 Build 0)  -->
<!DOCTYPE svg PUBLIC "-//W3C//DTD SVG 1.1//EN" "http://www.w3.org/Graphics/SVG/1.1/DTD/svg11.dtd">
<svg version="1.1" id="Capa_1" xmlns="http://www.w3.org/2000/svg" xmlns:xlink="http://www.w3.org/1999/xlink" x="0px" y="0px"
	 width="64px" height="64px" viewBox="0 0 64 64" enable-background="new 0 0 64 64" xml:space="preserve">
<g>
	<path d="M27.698,11.072c1.192,0,2.351,0.139,3.47,0.385c0.356-0.875,0.564-1.894,0.564-2.987c0,0-1.783-5.844-3.982-5.844h-0.103
		c-2.199,0-3.982,5.844-3.982,5.844c0,1.093,0.208,2.112,0.564,2.987C25.347,11.211,26.506,11.072,27.698,11.072z"/>
	<path d="M27.749,51.857c2.199,0,3.982-5.844,3.982-5.844c0-1.093-0.208-2.112-0.564-2.987c-1.119,0.246-2.278,0.385-3.47,0.385
		c-1.192,0-2.351-0.139-3.47-0.385c-0.356,0.875-0.564,1.894-0.564,2.987c0,0,1.783,5.844,3.982,5.844H27.749z"/>
	<path d="M18.025,43.828c0.741-0.812,1.264-1.711,1.591-2.603c-2.018-1.171-3.758-2.761-5.103-4.657
		c-0.858,0.406-1.706,1.01-2.447,1.822c0,0-2.622,5.518-0.997,7.001l0.076,0.07C12.769,46.943,18.025,43.828,18.025,43.828z"/>
	<path d="M14.512,17.915c1.345-1.896,3.086-3.486,5.103-4.657c-0.326-0.891-0.849-1.791-1.591-2.603c0,0-5.256-3.115-6.88-1.633
		l-0.076,0.07c-1.625,1.482,0.997,7.001,0.997,7.001C12.807,16.905,13.654,17.509,14.512,17.915z"/>
	<path d="M38.376,13.176c0-1.395,0.333-2.562,0.901-3.499c-1.087,0.495-1.907,0.978-1.907,0.978
		c-0.741,0.812-1.264,1.711-1.591,2.603c0.928,0.539,1.796,1.167,2.596,1.873V13.176z"/>
	<path d="M8.926,31.275c1.093,0,2.112-0.208,2.987-0.564c-0.246-1.119-0.385-2.278-0.385-3.47c0-1.192,0.139-2.351,0.385-3.47
		c-0.875-0.356-1.894-0.564-2.987-0.564c0,0-5.844,1.783-5.844,3.982v0.103C3.082,29.493,8.926,31.275,8.926,31.275z"/>
	<path d="M16.574,18.482c-1.448,1.837-2.445,4.039-2.841,6.447c-0.124,0.754-0.205,1.523-0.205,2.313
		c0,0.789,0.081,1.558,0.205,2.313c0.396,2.408,1.393,4.611,2.841,6.447c0.96,1.218,2.113,2.273,3.417,3.121
		c1.603,1.042,3.431,1.761,5.394,2.084c0.754,0.124,1.523,0.205,2.313,0.205c0.789,0,1.558-0.081,2.313-0.205
		c1.963-0.323,3.79-1.042,5.394-2.084c1.109-0.721,2.106-1.593,2.972-2.586V36.02V18.463v-0.516
		c-0.865-0.993-1.863-1.865-2.972-2.586c-1.603-1.042-3.431-1.761-5.394-2.084c-0.754-0.124-1.523-0.205-2.313-0.205
		c-0.789,0-1.558,0.081-2.313,0.205c-1.963,0.323-3.791,1.042-5.394,2.084C18.687,16.209,17.535,17.264,16.574,18.482z"/>
	<path d="M48.85,24.119v-7.506c0-2.932-1.295-2.932-1.848-2.932c-0.553,0-1.848,0-1.848,2.932v6.7v6.305h3.696V24.119z"/>
	<path d="M36.99,43.348c-1.217,1.879-1.943,4.104-1.943,6.511c0,6.659,5.398,12.057,12.057,12.057c0.841,0,1.661-0.087,2.453-0.251
		c5.483-1.133,9.604-5.988,9.604-11.806c0-4.429-2.395-8.29-5.954-10.386V14.334c0-2.981-2.083-5.47-4.871-6.105
		c-0.449-0.102-0.915-0.161-1.396-0.161c-1.083,0-2.102,0.275-2.991,0.758c-1.952,1.062-3.276,3.13-3.276,5.508v3.301v0.388v1.403
		v2.135v5.142v1.077v5.142v2.135v1.403v0.388v2.824C39.19,40.61,37.943,41.875,36.99,43.348z M47.002,12.681
		c2.171,0,2.848,1.76,2.848,3.932v7.999v5.006v0.253v13.351c2.984,0.764,4.562,3.346,4.776,5.918
		c0.026,0.197,0.043,0.396,0.043,0.598c0,4.178-3.387,7.565-7.565,7.565c-4.178,0-7.564-3.387-7.564-7.565
		c0-0.203,0.018-0.403,0.045-0.601c0.114-1.412,0.612-2.661,1.412-3.655c0.799-0.995,1.878-1.745,3.157-2.134v-2.898v-9.499v-1.331
		v-6.084v-6.921C44.154,14.442,44.831,12.681,47.002,12.681z"/>
	<path d="M50.896,54.582c1.542-1.673,2.262-3.74,2.061-5.785c-0.136-1.385-2.941-1.395-2.804,0c0.169,1.711-0.389,3.293-1.678,4.691
		C47.424,54.629,49.857,55.71,50.896,54.582z"/>
</g>
</svg>
