<?xml version="1.0" encoding="utf-8"?>
<!-- Generator: Adobe Illustrator 17.0.0, SVG Export Plug-In . SVG Version: 6.00 Build 0)  -->
<!DOCTYPE svg PUBLIC "-//W3C//DTD SVG 1.1//EN" "http://www.w3.org/Graphics/SVG/1.1/DTD/svg11.dtd">
<svg version="1.1" id="Capa_1" xmlns="http://www.w3.org/2000/svg" xmlns:xlink="http://www.w3.org/1999/xlink" x="0px" y="0px"
	 width="64px" height="64px" viewBox="0 0 64 64" enable-background="new 0 0 64 64" xml:space="preserve">
<path d="M51.793,1.541c-3.227,0-5.852,2.625-5.852,5.852c0,1.737,0.765,3.296,1.972,4.368v9.042l-0.79,1.852l-3.019-8.398V13.04
	c0-3.095-1.646-4.193-3.057-4.193c-0.948,0-1.918,0.447-2.889,1.33L6.035,19.404l-0.274,0.274c-2.612,2.611-2.613,6.862,0,9.476
	l0.274,0.275l32.124,9.228c0.97,0.883,1.94,1.329,2.888,1.329c0.998,0,1.88-0.517,2.419-1.418c0.423-0.707,0.638-1.641,0.638-2.774
	v-0.967l2.86-6.702l0.949,2.64v27.898c0,2.116,1.722,3.838,3.838,3.838c2.116,0,3.837-1.722,3.837-3.838V11.839
	c1.257-1.074,2.057-2.667,2.057-4.446C57.645,4.166,55.02,1.541,51.793,1.541z M13.114,28.34l-5.472-1.572
	c-1.123-1.361-1.123-3.343,0-4.704l5.472-1.572V28.34z M22.475,24.394v6.636l-6.361-1.827v-9.572l6.361-1.827V24.394z
	 M31.836,24.467v9.252l-6.361-1.827v-7.498v-7.452l6.361-1.827V24.467z M41.103,35.794c0,0.657-0.105,1.002-0.174,1.158
	c-0.16-0.062-0.478-0.23-0.942-0.695l-0.274-0.274l-4.877-1.401V24.467V14.253l4.877-1.401l0.274-0.274
	c0.465-0.465,0.783-0.635,0.942-0.696c0.069,0.157,0.174,0.502,0.174,1.159V35.794z M44.104,29.73v-9.561l1.866,5.189L44.104,29.73z
	"/>
</svg>
