<?xml version="1.0" encoding="utf-8"?>
<!-- Generator: Adobe Illustrator 17.0.0, SVG Export Plug-In . SVG Version: 6.00 Build 0)  -->
<!DOCTYPE svg PUBLIC "-//W3C//DTD SVG 1.1//EN" "http://www.w3.org/Graphics/SVG/1.1/DTD/svg11.dtd">
<svg version="1.1" id="Capa_1" xmlns="http://www.w3.org/2000/svg" xmlns:xlink="http://www.w3.org/1999/xlink" x="0px" y="0px"
	 width="64px" height="64px" viewBox="0 0 64 64" enable-background="new 0 0 64 64" xml:space="preserve">
<g>
	<path d="M36.744,30.145c-0.014-0.644-0.158-1.256-0.397-1.817c-0.546,0.811-1.3,1.497-2.237,1.962
		c-0.112,0.055-0.227,0.098-0.341,0.146l3.763,28.306H26.106l2.206-16.535c-0.45,1.122-0.889,2.189-1.309,3.172
		c-1.385,3.242-2.293,5.019-2.941,6.001l-1.382,10.362h18.277L36.744,30.145z"/>
	<path d="M26.947,29.711c0.081-0.242,0.166-0.488,0.248-0.731c-0.03-0.033-0.055-0.072-0.084-0.106
		C27.032,29.145,26.979,29.424,26.947,29.711z"/>
	<path d="M14.472,1.952c-0.793,0.597,4.66,9.197,12.386,19.615c0.53-0.709,1.224-1.31,2.07-1.73c0.349-0.173,0.711-0.302,1.08-0.402
		C22.086,9.051,15.269,1.352,14.472,1.952z"/>
	<path d="M59.388,17.997c-0.254-0.959-10.298,0.855-22.869,4.088c0.076,0.128,0.159,0.251,0.226,0.387
		c0.53,1.068,0.699,2.222,0.557,3.325C49.919,22.377,59.643,18.961,59.388,17.997z"/>
	<path d="M22.476,51.587c0.342,0,1.031-1.073,1.952-2.95c1.176-2.397,2.733-6.112,4.442-10.614c0.839-2.209,1.714-4.606,2.598-7.129
		c-0.557-0.005-1.099-0.087-1.615-0.239c-0.674-0.199-1.296-0.524-1.851-0.945c-0.633,1.884-1.228,3.708-1.777,5.448
		c-2.933,9.295-4.564,16.158-3.798,16.421C22.443,51.585,22.459,51.587,22.476,51.587z"/>
	<path d="M27.577,27.855c0.115,0.163,0.239,0.318,0.371,0.463c0.124,0.137,0.259,0.26,0.397,0.38
		c0.488,0.426,1.052,0.743,1.657,0.943c0.489,0.162,1,0.256,1.521,0.256c0.1,0,0.2-0.011,0.3-0.017
		c0.184-0.011,0.368-0.034,0.551-0.067c0.194-0.035,0.386-0.082,0.578-0.141c0.205-0.064,0.407-0.14,0.607-0.233
		c0.036-0.017,0.072-0.028,0.108-0.046c0.938-0.465,1.649-1.198,2.107-2.056c0.21-0.393,0.353-0.815,0.448-1.249
		c0.227-1.036,0.137-2.148-0.371-3.172c-0.1-0.201-0.213-0.39-0.336-0.571c-0.915-1.348-2.429-2.117-3.998-2.117
		c-0.281,0-0.562,0.032-0.843,0.082c-0.441,0.079-0.879,0.213-1.3,0.422c-0.798,0.396-1.421,0.993-1.877,1.687
		c-0.909,1.387-1.097,3.196-0.307,4.79c0.109,0.219,0.233,0.425,0.369,0.62C27.563,27.839,27.571,27.846,27.577,27.855z"/>
</g>
</svg>
